<svg width="1000" height="1000" viewBox="0 0 1000 1000" fill="none" xmlns="http://www.w3.org/2000/svg">
<path d="M1000 500C1000 776.142 776.142 1000 500 1000C223.858 1000 0 776.142 0 500C0 223.858 223.858 0 500 0C776.142 0 1000 223.858 1000 500Z" fill="white"/>
<path fill-rule="evenodd" clip-rule="evenodd" d="M295.438 499.5C295.438 386.247 387.248 294.438 500.5 294.438C613.752 294.438 705.562 386.247 705.562 499.5C705.562 612.752 613.752 704.562 500.5 704.562C460.158 704.562 422.607 692.939 390.924 672.865C385.027 669.13 377.802 668.131 371.114 670.126L301.654 690.857L327.807 629.662C330.898 622.429 330.269 614.144 326.121 607.462C306.673 576.121 295.438 539.159 295.438 499.5ZM500.5 246.188C360.6 246.188 247.188 359.599 247.188 499.5C247.188 543.844 258.603 585.585 278.662 621.879L237.066 719.206C233.389 727.812 235.019 737.766 241.248 744.748C247.478 751.732 257.183 754.482 266.15 751.804L374.698 719.411C411.779 740.666 454.752 752.812 500.5 752.812C640.401 752.812 753.812 639.401 753.812 499.5C753.812 359.599 640.401 246.188 500.5 246.188ZM555.807 552.15L524.102 574.483C509.253 566.025 492.835 554.218 476.368 537.75C459.249 520.631 446.557 502.957 437.199 486.745L457.348 469.643C465.994 462.304 468.361 449.931 463.034 439.918L437.361 391.668C433.904 385.171 427.67 380.607 420.433 379.274C413.195 377.941 405.744 379.985 400.2 384.824L392.588 391.467C374.284 407.442 363.458 433.694 372.43 460.275C381.732 487.831 401.583 531.2 442.251 571.868C486.003 615.621 530.446 632.851 556.436 639.543C577.377 644.933 597.193 637.707 611.157 626.33L625.427 614.702C631.53 609.73 634.823 602.089 634.249 594.236C633.672 586.384 629.301 579.306 622.536 575.274L582.047 551.149C573.869 546.278 563.592 546.669 555.807 552.15Z" fill="#373845"/>
</svg>
