<svg width="24" height="24" viewBox="0 0 24 24" fill="none" xmlns="http://www.w3.org/2000/svg">
<path d="M23.998 6.123C23.998 6.094 23.999 6.06 23.999 6.026C23.999 5.283 23.911 4.561 23.746 3.87L23.759 3.933C23.447 2.642 22.659 1.574 21.596 0.902L21.576 0.89C21.04 0.54 20.408 0.286 19.729 0.167L19.699 0.163C19.236 0.079 18.696 0.025 18.146 0.013H18.135C18.095 0.013 18.052 0.003 18.011 0H5.986C5.834 0.01 5.686 0.017 5.531 0.026C4.74 0.042 3.989 0.187 3.289 0.441L3.338 0.426C2.032 0.927 1.011 1.921 0.485 3.174L0.473 3.207C0.303 3.616 0.176 4.092 0.113 4.587L0.11 4.615C0.059 4.958 0.023 5.366 0.01 5.78V5.796C0.01 5.828 0.003 5.858 0 5.889V18.113C0.01 18.253 0.017 18.396 0.027 18.537C0.047 19.398 0.229 20.21 0.543 20.953L0.527 20.91C1.136 22.274 2.301 23.297 3.726 23.702L3.761 23.711C4.138 23.822 4.578 23.903 5.032 23.938L5.054 23.939C5.609 23.992 6.164 23.999 6.721 23.999H17.749C18.303 23.999 18.848 23.962 19.382 23.892L19.319 23.899C20.183 23.803 20.964 23.514 21.64 23.076L21.619 23.089C22.444 22.55 23.089 21.799 23.486 20.913L23.499 20.881C23.665 20.498 23.794 20.052 23.865 19.588L23.869 19.557C23.953 19.018 24.001 18.396 24.001 17.763C24.001 17.677 24 17.592 23.998 17.507V17.52C23.998 13.72 23.998 9.922 23.998 6.126V6.123ZM17.574 10.113V15.825C17.575 15.85 17.575 15.879 17.575 15.908C17.575 16.315 17.485 16.702 17.323 17.048L17.33 17.031C17.057 17.593 16.559 18.01 15.957 18.168L15.942 18.171C15.626 18.265 15.26 18.327 14.882 18.344H14.872C14.843 18.346 14.81 18.346 14.776 18.346C13.743 18.346 12.905 17.508 12.905 16.475C12.905 15.734 13.336 15.093 13.961 14.79L13.972 14.785C14.265 14.645 14.607 14.533 14.963 14.465L14.99 14.461C15.368 14.379 15.748 14.308 16.124 14.221C16.388 14.176 16.592 13.969 16.634 13.708V13.705C16.647 13.648 16.654 13.583 16.654 13.516C16.654 13.514 16.654 13.513 16.654 13.511C16.654 11.6957 16.654 9.88133 16.654 8.068C16.653 8.002 16.644 7.938 16.627 7.878L16.628 7.883C16.602 7.749 16.485 7.648 16.345 7.648C16.339 7.648 16.333 7.648 16.327 7.649C16.149 7.662 15.988 7.685 15.829 7.719L15.853 7.715C15.093 7.865 14.333 8.017 13.573 8.171L9.873 8.919C9.857 8.919 9.841 8.929 9.825 8.932C9.603 8.962 9.433 9.151 9.433 9.379C9.433 9.394 9.434 9.409 9.435 9.424V9.422V9.552C9.435 12.152 9.435 14.7523 9.435 17.353C9.436 17.381 9.436 17.415 9.436 17.448C9.436 17.856 9.357 18.245 9.212 18.6L9.219 18.579C8.955 19.193 8.427 19.651 7.783 19.814L7.768 19.817C7.449 19.913 7.081 19.975 6.701 19.989H6.693C6.662 19.991 6.626 19.992 6.589 19.992C5.676 19.992 4.919 19.327 4.774 18.456L4.773 18.445C4.753 18.343 4.742 18.227 4.742 18.107C4.742 17.322 5.227 16.649 5.914 16.374L5.927 16.37C6.242 16.243 6.614 16.136 6.999 16.065L7.035 16.06C7.322 16 7.61 15.944 7.895 15.883C8.236 15.833 8.495 15.542 8.495 15.19C8.495 15.183 8.495 15.175 8.495 15.168V15.169V15.019C8.495 12.059 8.495 9.098 8.495 6.136C8.495 6.134 8.495 6.132 8.495 6.129C8.495 6 8.51 5.875 8.539 5.755L8.537 5.766C8.603 5.502 8.814 5.3 9.079 5.249L9.083 5.248C9.338 5.182 9.598 5.136 9.857 5.083C10.59 4.933 11.323 4.783 12.057 4.639L14.327 4.179C14.997 4.045 15.667 3.909 16.337 3.779C16.518 3.737 16.744 3.7 16.974 3.675L17.001 3.673C17.019 3.671 17.041 3.669 17.062 3.669C17.332 3.669 17.551 3.886 17.555 4.154C17.563 4.221 17.567 4.298 17.567 4.376C17.567 6.286 17.567 8.19767 17.567 10.109L17.574 10.113Z" fill="#B3B3B3"/>
</svg>
