<svg width="24" height="24" viewBox="0 0 24 24" fill="none" xmlns="http://www.w3.org/2000/svg">
<path fill-rule="evenodd" clip-rule="evenodd" d="M11.9962 0C8.73824 0 8.32971 0.0138095 7.05019 0.0721905C5.77333 0.130428 4.90129 0.333238 4.13824 0.629809C3.34938 0.936333 2.68038 1.34653 2.01343 2.01343C1.34652 2.68038 0.936333 3.34938 0.629809 4.13824C0.333238 4.90129 0.130429 5.77334 0.0721905 7.05019C0.0138095 8.32972 0 8.73824 0 11.9963C0 15.2542 0.0138095 15.6627 0.0721905 16.9423C0.130429 18.2191 0.333238 19.0912 0.629809 19.8542C0.936333 20.6431 1.34652 21.3121 2.01343 21.979C2.68038 22.6459 3.34938 23.0561 4.13824 23.3627C4.90129 23.6592 5.77333 23.862 7.05019 23.9203C8.32971 23.9786 8.73824 23.9924 11.9962 23.9924C15.2542 23.9924 15.6627 23.9786 16.9422 23.9203C18.2191 23.862 19.0911 23.6592 19.8542 23.3627C20.643 23.0561 21.312 22.6459 21.979 21.979C22.6459 21.3121 23.0561 20.6431 23.3627 19.8542C23.6592 19.0912 23.862 18.2191 23.9202 16.9423C23.9786 15.6627 23.9924 15.2542 23.9924 11.9963C23.9924 8.73824 23.9786 8.32972 23.9202 7.05019C23.862 5.77334 23.6592 4.90129 23.3627 4.13824C23.0561 3.34938 22.6459 2.68038 21.979 2.01343C21.312 1.34653 20.643 0.936333 19.8542 0.629809C19.0911 0.333238 18.2191 0.130428 16.9422 0.0721905C15.6627 0.0138095 15.2542 0 11.9962 0ZM7.99748 11.9963C7.99748 14.2047 9.78776 15.995 11.9962 15.995C14.2047 15.995 15.995 14.2047 15.995 11.9963C15.995 9.78776 14.2047 7.99748 11.9962 7.99748C9.78776 7.99748 7.99748 9.78776 7.99748 11.9963ZM5.836 11.9963C5.836 8.594 8.594 5.836 11.9962 5.836C15.3984 5.836 18.1564 8.594 18.1564 11.9963C18.1564 15.3984 15.3984 18.1564 11.9962 18.1564C8.594 18.1564 5.836 15.3984 5.836 11.9963ZM18.3998 7.03215C19.1949 7.03215 19.8394 6.38767 19.8394 5.59262C19.8394 4.79757 19.1949 4.15305 18.3998 4.15305C17.6048 4.15305 16.9603 4.79757 16.9603 5.59262C16.9603 6.38767 17.6048 7.03215 18.3998 7.03215Z" fill="#B3B3B3"/>
</svg>
