<svg width="25" height="25" viewBox="0 0 25 25" fill="none" xmlns="http://www.w3.org/2000/svg">
<path d="M21.8297 1H2.65975C2.65375 1 2.647 1 2.6395 1C1.74025 1 1.0105 1.723 1 2.61925V21.8732C1.0105 22.7702 1.74025 23.494 2.6395 23.494C2.647 23.494 2.65375 23.494 2.66125 23.494H21.8275C21.8335 23.494 21.841 23.494 21.8485 23.494C22.7485 23.494 23.4797 22.7717 23.494 21.8747V21.8732V2.62075C23.4797 1.723 22.7485 1 21.8477 1C21.8402 1 21.8335 1 21.826 1H21.8297ZM7.67125 20.1685H4.33075V9.43525H7.67125V20.1685ZM6.00175 7.96675C4.933 7.96675 4.0675 7.1005 4.0675 6.0325C4.0675 4.9645 4.93375 4.09825 6.00175 4.09825C7.06975 4.09825 7.936 4.96375 7.936 6.03175C7.936 6.0325 7.936 6.03325 7.936 6.03475C7.936 7.102 7.0705 7.9675 6.00325 7.9675C6.0025 7.9675 6.00175 7.9675 6.001 7.9675L6.00175 7.96675ZM20.1632 20.1685H16.8325V14.9492C16.8325 13.7042 16.807 12.103 15.097 12.103C13.36 12.103 13.0952 13.4575 13.0952 14.8577V20.1692H9.7645V9.436H12.964V10.8992H13.0075C13.6285 9.853 14.752 9.163 16.0367 9.163C16.0825 9.163 16.1275 9.16375 16.1725 9.16525H16.1657C19.5407 9.16525 20.1647 11.3867 20.1647 14.278V20.1692L20.1632 20.1685Z" fill="#B3B3B3"/>
</svg>
