<svg width="20" height="20" viewBox="0 0 20 20" fill="none" xmlns="http://www.w3.org/2000/svg">
<g clip-path="url(#clip0_2003_12)">
<path fill-rule="evenodd" clip-rule="evenodd" d="M11.4686 9.13945C11.4686 10.1677 11.4931 11.0248 10.9744 11.9383C10.5555 12.6813 9.88881 13.1374 9.14826 13.1374C8.13635 13.1374 7.544 12.3667 7.544 11.2242C7.544 8.97711 9.5599 8.56859 11.4686 8.56859V9.13945ZM14.1289 15.5725C13.9539 15.7289 13.7018 15.7398 13.5051 15.6337C12.6283 14.9055 12.4714 14.5687 11.9926 13.8755C10.5446 15.3508 9.51861 15.7932 7.64279 15.7932C5.42127 15.7932 3.69397 14.4227 3.69397 11.6812C3.69397 9.53926 4.85365 8.08305 6.50736 7.36891C7.93889 6.74055 9.93846 6.62656 11.4685 6.45496V6.11223C11.4685 5.48434 11.5175 4.74148 11.1475 4.19898C10.8265 3.71344 10.2095 3.51375 9.66686 3.51375C8.66061 3.51375 7.76568 4.02922 7.54623 5.09781C7.50022 5.33586 7.32701 5.57086 7.08744 5.58316L4.53045 5.30613C4.31467 5.25766 4.07436 5.08418 4.13693 4.75461C4.72428 1.65223 7.52608 0.714844 10.0368 0.714844C11.3203 0.714844 12.9987 1.05758 14.0106 2.02852C15.2941 3.22813 15.1708 4.82734 15.1708 6.56945V10.6797C15.1708 11.9161 15.684 12.4588 16.1663 13.1256C16.335 13.365 16.3731 13.6506 16.1582 13.8256C15.6191 14.2776 14.6612 15.1096 14.1343 15.5784L14.1289 15.5725ZM17.7446 16.3038C15.2945 17.3429 12.6319 17.8452 10.21 17.8452C6.61889 17.8452 3.14268 16.8605 0.331818 15.2243C0.0856458 15.081 -0.0966198 15.3336 0.107872 15.5185C2.71342 17.8715 6.15651 19.2851 9.98022 19.2851C12.7086 19.2851 15.8767 18.4269 18.0624 16.8143C18.4237 16.5468 18.114 16.1469 17.7446 16.3038ZM18.3969 18.2678C18.3171 18.4672 18.4885 18.5479 18.669 18.3965C19.8414 17.4154 20.1442 15.3607 19.9039 15.0638C19.6659 14.7696 17.6162 14.5161 16.3649 15.3943C16.1727 15.5303 16.2062 15.7162 16.4194 15.6908C17.1239 15.6061 18.6921 15.4179 18.9718 15.7761C19.2511 16.1342 18.6608 17.6086 18.3969 18.2678Z" fill="white"/>
</g>
<defs>
<clipPath id="clip0_2003_12">
<rect width="20" height="20" fill="white"/>
</clipPath>
</defs>
</svg>
