<svg width="800" height="800" viewBox="0 0 800 800" fill="none" xmlns="http://www.w3.org/2000/svg">
<g clip-path="url(#clip0_2009_22)">
<path d="M800 204.133C800 203.167 800.033 202.033 800.033 200.9C800.033 176.133 797.1 152.067 791.6 129.033L792.033 131.133C781.633 88.1 755.367 52.5 719.933 30.1L719.267 29.7C701.4 18.0334 680.333 9.56669 657.7 5.60002L656.7 5.46669C641.267 2.66669 623.267 0.866689 604.933 0.466689H604.567C603.233 0.466689 601.8 0.133356 600.433 0.0333557H199.6C194.533 0.366689 189.6 0.600022 184.433 0.900022C158.067 1.43336 133.033 6.26669 109.7 14.7334L111.333 14.2334C67.8 30.9334 33.7666 64.0667 16.2333 105.833L15.8333 106.933C10.1666 120.567 5.93332 136.433 3.83332 152.933L3.73332 153.867C2.03332 165.3 0.833317 178.9 0.399984 192.7V193.233C0.399984 194.3 0.16665 195.3 0.0666504 196.333V603.8C0.399984 608.467 0.633317 613.233 0.96665 617.933C1.63332 646.633 7.69998 673.7 18.1667 698.467L17.6333 697.033C37.9333 742.5 76.7666 776.6 124.267 790.1L125.433 790.4C138 794.1 152.667 796.8 167.8 797.967L168.533 798C187.033 799.767 205.533 800 224.1 800H591.7C610.167 800 628.333 798.767 646.133 796.433L644.033 796.667C672.833 793.467 698.867 783.833 721.4 769.233L720.7 769.667C748.2 751.7 769.7 726.667 782.933 697.133L783.367 696.067C788.9 683.3 793.2 668.433 795.567 652.967L795.7 651.933C798.5 633.967 800.1 613.233 800.1 592.133C800.1 589.267 800.067 586.433 800 583.6V584.033C800 457.367 800 330.767 800 204.233V204.133ZM585.867 337.133V527.533C585.9 528.367 585.9 529.333 585.9 530.3C585.9 543.867 582.9 556.767 577.5 568.3L577.733 567.733C568.633 586.467 552.033 600.367 531.967 605.633L531.467 605.733C520.933 608.867 508.733 610.933 496.133 611.5H495.8C494.833 611.567 493.733 611.567 492.6 611.567C458.167 611.567 430.233 583.633 430.233 549.2C430.233 524.5 444.6 503.133 465.433 493.033L465.8 492.867C475.567 488.2 486.967 484.467 498.833 482.2L499.733 482.067C512.333 479.333 525 476.967 537.533 474.067C546.333 472.567 553.133 465.667 554.533 456.967V456.867C554.967 454.967 555.2 452.8 555.2 450.567C555.2 450.5 555.2 450.467 555.2 450.4C555.2 389.889 555.2 329.411 555.2 268.967C555.167 266.767 554.867 264.633 554.3 262.633L554.333 262.8C553.467 258.333 549.567 254.967 544.9 254.967C544.7 254.967 544.5 254.967 544.3 255C538.367 255.433 533 256.2 527.7 257.333L528.5 257.2C503.167 262.2 477.833 267.267 452.5 272.4L329.167 297.333C328.633 297.333 328.1 297.667 327.567 297.767C320.167 298.767 314.5 305.067 314.5 312.667C314.5 313.167 314.533 313.667 314.567 314.167V314.1V318.433C314.567 405.1 314.567 491.778 314.567 578.467C314.6 579.4 314.6 580.533 314.6 581.633C314.6 595.233 311.967 608.2 307.133 620.033L307.367 619.333C298.567 639.8 280.967 655.067 259.5 660.5L259 660.6C248.367 663.8 236.1 665.867 223.433 666.333H223.167C222.133 666.4 220.933 666.433 219.7 666.433C189.267 666.433 164.033 644.267 159.2 615.233L159.167 614.867C158.5 611.467 158.133 607.6 158.133 603.6C158.133 577.433 174.3 555 197.2 545.833L197.633 545.7C208.133 541.467 220.533 537.9 233.367 535.533L234.567 535.367C244.133 533.367 253.733 531.5 263.233 529.467C274.6 527.8 283.233 518.1 283.233 506.367C283.233 506.133 283.233 505.867 283.233 505.633V505.667V500.667C283.233 402 283.233 303.3 283.233 204.567C283.233 204.5 283.233 204.433 283.233 204.333C283.233 200.033 283.733 195.867 284.7 191.867L284.633 192.233C286.833 183.433 293.867 176.7 302.7 175L302.833 174.967C311.333 172.767 320 171.233 328.633 169.467C353.067 164.467 377.5 159.467 401.967 154.667L477.633 139.333C499.967 134.867 522.3 130.333 544.633 126C550.667 124.6 558.2 123.367 565.867 122.533L566.767 122.467C567.367 122.4 568.1 122.333 568.8 122.333C577.8 122.333 585.1 129.567 585.233 138.5C585.5 140.733 585.633 143.3 585.633 145.9C585.633 209.567 585.633 273.289 585.633 337L585.867 337.133Z" fill="white"/>
</g>
<defs>
<clipPath id="clip0_2009_22">
<rect width="800" height="800" fill="white"/>
</clipPath>
</defs>
</svg>
