<svg width="32" height="32" viewBox="0 0 32 32" fill="none" xmlns="http://www.w3.org/2000/svg">
<path d="M1.33337 16C1.33337 16.7364 1.93033 17.3333 2.66671 17.3333H29.3334C30.0698 17.3333 30.6667 16.7364 30.6667 16C30.6667 15.2636 30.0698 14.6667 29.3334 14.6667H2.66671C1.93033 14.6667 1.33337 15.2636 1.33337 16Z" fill="white"/>
<path d="M1.33337 26.6667C1.33337 27.403 1.93033 28 2.66671 28H29.3334C30.0698 28 30.6667 27.403 30.6667 26.6667C30.6667 25.9303 30.0698 25.3333 29.3334 25.3333H2.66671C1.93033 25.3333 1.33337 25.9303 1.33337 26.6667Z" fill="white"/>
<path d="M1.33337 5.33332C1.33337 6.06972 1.93033 6.66666 2.66671 6.66666H29.3334C30.0698 6.66666 30.6667 6.06972 30.6667 5.33332C30.6667 4.59692 30.0698 3.99999 29.3334 3.99999H2.66671C1.93033 3.99999 1.33337 4.59692 1.33337 5.33332Z" fill="white"/>
</svg>
